<?xml version="1.0" encoding="iso-8859-1"?>
<!-- Generator: Adobe Illustrator 19.0.0, SVG Export Plug-In . SVG Version: 6.00 Build 0)  -->
<svg version="1.1" id="Capa_1" xmlns="http://www.w3.org/2000/svg" xmlns:xlink="http://www.w3.org/1999/xlink" x="0px" y="0px"
	 viewBox="0 0 512 512" style="enable-background:new 0 0 512 512;" xml:space="preserve">
<path style="fill:#235087;" d="M416.542,368.814l75.993,75.993c6.908,6.908,10.787,16.271,10.787,26.034l0,0
	c0.009,20.332-16.471,36.812-36.803,36.821c-0.009,0-0.009,0-0.017,0l0,0c-9.763,0-19.126-3.879-26.034-10.787l-75.993-75.993
	L416.542,368.814z"/>
<rect x="332.005" y="342.457" transform="matrix(-0.7071 0.7071 -0.7071 -0.7071 893.4613 376.1828)" style="fill:#EF2648;" width="73.632" height="61.353"/>
<path style="fill:#163768;" d="M403.525,386.169c10.9,0.017,21.782,0.755,32.577,2.204l-19.56-19.56l-17.469,17.469
	C400.558,386.256,402.033,386.169,403.525,386.169z"/>
<path style="fill:#B20D24;" d="M416.542,368.814l-43.39-43.39l-52.068,52.068l17.356,17.356c19.768-5.354,40.127-8.244,60.607-8.591
	L416.542,368.814z"/>
<circle style="fill:#B7E5FF;" cx="208.271" cy="212.61" r="173.559"/>
<g>
	
		<rect x="147.522" y="193.141" transform="matrix(-0.7071 0.7071 -0.7071 -0.7071 429.2543 282.1118)" style="fill:#EF2648;" width="17.356" height="73.632"/>
	
		<rect x="202.57" y="212.612" transform="matrix(-0.7071 0.7071 -0.7071 -0.7071 586.0867 199.8138)" style="fill:#EF2648;" width="98.182" height="17.356"/>
	<rect x="451.254" y="39.051" style="fill:#EF2648;" width="60.746" height="17.356"/>
	<rect x="34.712" y="177.898" style="fill:#EF2648;" width="52.068" height="17.356"/>
	
		<rect x="365.953" y="73.78" transform="matrix(-0.7071 0.7071 -0.7071 -0.7071 724.9299 -135.3595)" style="fill:#EF2648;" width="49.091" height="17.356"/>
</g>
<g>
	<path style="fill:#235087;" d="M112.814,221.288c-19.17,0-34.712-15.542-34.712-34.712s15.542-34.712,34.712-34.712
		s34.712,15.542,34.712,34.712S131.983,221.288,112.814,221.288z M112.814,169.22c-9.589,0-17.356,7.767-17.356,17.356
		c0,9.589,7.767,17.356,17.356,17.356s17.356-7.767,17.356-17.356C130.169,176.987,122.403,169.22,112.814,169.22z"/>
	<path style="fill:#235087;" d="M199.593,308.068c-19.17,0-34.712-15.542-34.712-34.712s15.542-34.712,34.712-34.712
		s34.712,15.542,34.712,34.712S218.763,308.068,199.593,308.068z M199.593,256c-9.589,0-17.356,7.767-17.356,17.356
		s7.767,17.356,17.356,17.356c9.589,0,17.356-7.767,17.356-17.356S209.182,256,199.593,256z"/>
	<path style="fill:#235087;" d="M425.22,82.441c-19.17,0-34.712-15.542-34.712-34.712s15.542-34.712,34.712-34.712
		s34.712,15.542,34.712,34.712S444.39,82.441,425.22,82.441z M425.22,30.373c-9.589,0-17.356,7.767-17.356,17.356
		s7.767,17.356,17.356,17.356s17.356-7.767,17.356-17.356S434.809,30.373,425.22,30.373z"/>
</g>
<path style="fill:#99C8E0;" d="M274.866,52.337c74.127,60.772,84.949,170.132,24.168,244.259
	C250.516,355.771,168.96,376.19,98.287,346.85c74.127,60.772,183.478,49.95,244.259-24.168s49.95-183.478-24.168-244.259
	C305.23,67.645,290.564,58.854,274.866,52.337z"/>
<rect x="313.886" y="125.867" transform="matrix(-0.7071 0.7071 -0.7071 -0.7071 672.8756 -9.6242)" style="fill:#EF2648;" width="49.091" height="17.356"/>
<path style="fill:#B20D24;" d="M349.193,111.486l-19.803,19.803c2.109,6.326,3.844,12.765,5.207,19.291l24.229-24.229
	C355.866,121.231,352.655,116.276,349.193,111.486z"/>
<g>
	<path style="fill:#235087;" d="M208.271,4.339C93.245,4.339,0,97.584,0,212.61s93.245,208.271,208.271,208.271
		s208.271-93.245,208.271-208.271S323.298,4.339,208.271,4.339z M208.271,386.169c-95.857,0-173.559-77.703-173.559-173.559
		S112.414,39.051,208.271,39.051s173.559,77.703,173.559,173.559S304.128,386.169,208.271,386.169z"/>
	<path style="fill:#235087;" d="M303.729,203.932c-19.17,0-34.712-15.542-34.712-34.712s15.542-34.712,34.712-34.712
		s34.712,15.542,34.712,34.712S322.898,203.932,303.729,203.932z M303.729,151.864c-9.589,0-17.356,7.767-17.356,17.356
		c0,9.589,7.767,17.356,17.356,17.356s17.356-7.767,17.356-17.356C321.085,159.631,313.318,151.864,303.729,151.864z"/>
</g>
<g>
</g>
<g>
</g>
<g>
</g>
<g>
</g>
<g>
</g>
<g>
</g>
<g>
</g>
<g>
</g>
<g>
</g>
<g>
</g>
<g>
</g>
<g>
</g>
<g>
</g>
<g>
</g>
<g>
</g>
</svg>
