<svg id="Capa_1" enable-background="new 0 0 512 512" height="512" viewBox="0 0 512 512" width="512" xmlns="http://www.w3.org/2000/svg" xmlns:xlink="http://www.w3.org/1999/xlink"><linearGradient id="SVGID_1_" gradientUnits="userSpaceOnUse" x1="59.564" x2="412.876" y1="27.758" y2="481.666"><stop offset="0" stop-color="#d2deff" stop-opacity="0"/><stop offset="1" stop-color="#b7c5ff"/></linearGradient><g><path d="m310.076 89.353c-21.43-52.669-73.271-89.723-133.726-89.35-77.125.475-140.537 62.684-142.408 139.786-.923 38.04 12.978 72.821 36.334 98.983 18.619 20.856 27.963 48.325 27.021 76.268-.125 3.714-.144 7.455-.052 11.22 2.464 101.4 89.087 185.801 190.517 185.74 105.133-.063 190.34-85.31 190.34-190.457 0-77.074-45.784-143.448-111.637-173.423-25.666-11.683-45.761-32.647-56.389-58.767z" fill="url(#SVGID_1_)"/><path d="m469.449 299.945h-71.796c2.11-5.635 3.908-11.422 5.361-17.345l38.708-11.024c3.294-.938 5.565-3.947 5.565-7.372v-37.408c0-3.425-2.272-6.434-5.565-7.372l-38.708-11.024c-3.791-15.451-9.886-29.996-17.916-43.241l19.578-35.171c1.666-2.992 1.144-6.726-1.277-9.148l-26.451-26.451c-2.422-2.422-6.156-2.943-9.148-1.277l-35.171 19.578c-13.245-8.03-27.79-14.125-43.241-17.916l-11.025-38.708c-.938-3.294-3.947-5.565-7.372-5.565h-37.407c-3.425 0-6.434 2.272-7.372 5.565l-11.025 38.708c-14.316 3.512-27.84 9.025-40.288 16.201v-49.783c0-5.536-4.488-10.024-10.024-10.024h-122.323c-5.536 0-10.024 4.488-10.024 10.024v97.278c0 5.536 4.488 10.024 10.024 10.024h74.987c-7.068 12.342-12.503 25.737-15.979 39.906l-38.708 11.024c-3.294.938-5.565 3.947-5.565 7.372v37.408c0 3.425 2.272 6.434 5.565 7.372l38.708 11.024c3.791 15.451 9.886 29.996 17.916 43.241l-19.578 35.171c-1.666 2.992-1.144 6.726 1.277 9.148l26.451 26.451c2.422 2.422 6.156 2.943 9.148 1.277l35.171-19.578c13.245 8.03 27.79 14.125 43.241 17.916l11.025 38.708c.938 3.294 3.947 5.565 7.372 5.565h37.407c3.425 0 6.434-2.272 7.372-5.565l11.025-38.708c6.054-1.485 11.963-3.336 17.715-5.507v16.527c0 5.536 4.488 10.024 10.024 10.024h152.322c5.536 0 10.024-4.488 10.024-10.024v-97.278c.001-5.535-4.487-10.023-10.023-10.023z" fill="#2626bc" opacity=".1"/><path d="m447.288 285.204v-37.408c0-3.425-2.272-6.434-5.565-7.372l-38.709-11.024c-3.791-15.451-9.886-29.996-17.916-43.241l19.578-35.171c1.666-2.992 1.144-6.726-1.277-9.148l-26.451-26.451c-2.422-2.422-6.156-2.943-9.148-1.277l-35.171 19.578c-13.245-8.03-27.79-14.125-43.241-17.916l-11.025-38.708c-.938-3.294-3.947-5.565-7.372-5.565h-37.407c-3.425 0-6.434 2.272-7.372 5.565l-11.025 38.708c-15.451 3.791-29.996 9.886-43.241 17.916l-35.171-19.578c-2.992-1.666-6.726-1.144-9.148 1.277l-26.451 26.451c-2.422 2.422-2.943 6.156-1.277 9.148l19.578 35.171c-8.03 13.245-14.125 27.79-17.916 43.241l-38.708 11.024c-3.294.938-5.565 3.947-5.565 7.372v37.408c0 3.425 2.272 6.434 5.565 7.372l38.707 11.024c3.791 15.451 9.886 29.996 17.916 43.241l-19.578 35.171c-1.666 2.992-1.144 6.726 1.277 9.148l26.451 26.451c2.422 2.422 6.156 2.943 9.148 1.277l35.171-19.578c13.245 8.03 27.79 14.125 43.241 17.916l11.025 38.708c.938 3.294 3.947 5.565 7.372 5.565h37.407c3.425 0 6.434-2.272 7.372-5.565l11.025-38.708c15.451-3.791 29.996-9.886 43.241-17.916l35.171 19.578c2.992 1.666 6.726 1.144 9.148-1.277l26.451-26.451c2.422-2.422 2.943-6.156 1.277-9.148l-19.578-35.171c8.03-13.245 14.125-27.79 17.916-43.241l38.708-11.025c3.295-.937 5.567-3.947 5.567-7.371z" fill="#fff"/><ellipse cx="252.287" cy="266.5" fill="#6583fe" rx="94" ry="94" transform="matrix(.707 -.707 .707 .707 -114.551 256.45)"/><circle cx="252.288" cy="266.5" fill="#fff" r="77.388"/><path d="m252.287 388.5c-67.271 0-122-54.729-122-122 0-2.761 2.239-5 5-5s5 2.239 5 5c0 61.757 50.243 112 112 112 2.761 0 5 2.239 5 5 .001 2.761-2.239 5-5 5z" fill="#2626bc"/><path d="m369.288 271.5c-2.761 0-5-2.239-5-5 0-61.757-50.243-112-112-112-2.761 0-5-2.239-5-5s2.239-5 5-5c67.271 0 122 54.729 122 122 0 2.761-2.239 5-5 5z" fill="#2626bc"/><g><g fill="#2626bc"><path d="m228.906 283.535c-1.279 0-2.56-.488-3.535-1.464l-12.035-12.035c-1.953-1.953-1.953-5.119 0-7.071l12.035-12.035c1.951-1.952 5.119-1.952 7.07 0 1.953 1.953 1.953 5.119 0 7.071l-8.499 8.5 8.499 8.5c1.953 1.953 1.953 5.119 0 7.071-.976.975-2.255 1.463-3.535 1.463z"/><path d="m275.668 283.535c-1.279 0-2.56-.488-3.535-1.464-1.953-1.953-1.953-5.119 0-7.071l8.499-8.5-8.499-8.5c-1.953-1.953-1.953-5.119 0-7.071 1.951-1.952 5.119-1.952 7.07 0l12.035 12.035c1.953 1.953 1.953 5.119 0 7.071l-12.035 12.035c-.975.977-2.255 1.465-3.535 1.465z"/><path d="m245.486 283.536c-.833 0-1.677-.208-2.453-.647-2.405-1.358-3.254-4.408-1.896-6.813l13.592-24.07c1.357-2.404 4.408-3.253 6.812-1.896 2.405 1.358 3.254 4.408 1.896 6.812l-13.592 24.07c-.92 1.629-2.614 2.544-4.359 2.544z"/></g><path d="m164.874 189.494h-122.322c-5.536 0-10.024-4.488-10.024-10.024v-97.278c0-5.536 4.488-10.024 10.024-10.024h122.322c5.536 0 10.024 4.488 10.024 10.024v97.278c0 5.536-4.487 10.024-10.024 10.024z" fill="#fff"/></g><path d="m164.874 72.168h-34.161v117.326h34.161c5.536 0 10.024-4.488 10.024-10.024v-97.278c0-5.536-4.488-10.024-10.024-10.024z" fill="#fff"/><path d="m174.9 104.913v-22.721c0-5.536-4.488-10.024-10.024-10.024h-122.324c-5.536 0-10.024 4.488-10.024 10.024v22.721z" fill="#6583fe"/><path d="m110.571 166.089h-49.715c-2.768 0-5.011-2.244-5.011-5.011s2.243-5.011 5.011-5.011h49.716c2.768 0 5.011 2.244 5.011 5.011-.001 2.768-2.244 5.011-5.012 5.011z" fill="#2626bc"/><path d="m83.507 145.285h-22.651c-2.768 0-5.011-2.244-5.011-5.011s2.243-5.011 5.011-5.011h22.651c2.768 0 5.011 2.244 5.011 5.011s-2.243 5.011-5.011 5.011z" fill="#2626bc"/><path d="m469.449 438.271h-152.322c-5.536 0-10.024-4.488-10.024-10.024v-97.278c0-5.536 4.488-10.024 10.024-10.024h152.322c5.536 0 10.024 4.488 10.024 10.024v97.278c0 5.536-4.488 10.024-10.024 10.024z" fill="#fff"/><path d="m479.473 353.69v-22.721c0-5.536-4.488-10.024-10.024-10.024h-152.322c-5.536 0-10.024 4.488-10.024 10.024v22.721z" fill="#6583fe"/><g fill="#2626bc"><path d="m469.448 315.945h-64.76c.892-2.753 1.719-5.531 2.459-8.323l35.944-10.237c5.414-1.542 9.196-6.551 9.196-12.181v-37.407c0-5.63-3.782-10.639-9.196-12.181l-35.944-10.237c-3.649-13.782-9.116-26.976-16.283-39.3l18.18-32.659c2.738-4.919 1.87-11.134-2.11-15.115l-26.451-26.451c-3.981-3.982-10.197-4.849-15.116-2.111l-32.659 18.18c-12.323-7.167-25.517-12.633-39.3-16.283l-10.237-35.944c-1.542-5.414-6.552-9.195-12.181-9.195h-37.407c-5.63 0-10.639 3.782-12.181 9.196l-10.237 35.943c-10.817 2.865-21.295 6.873-31.267 11.93v-41.378c0-8.284-6.74-15.024-15.024-15.024h-122.321c-8.284 0-15.024 6.74-15.024 15.024v22.721c0 2.761 2.239 5 5 5h137.37v69.556c0 2.771-2.254 5.024-5.024 5.024h-122.323c-2.77 0-5.024-2.254-5.024-5.024v-47.016c0-2.761-2.239-5-5-5s-5 2.239-5 5v47.016c0 8.285 6.74 15.024 15.024 15.024h66.617c-4.966 9.858-8.914 20.205-11.743 30.885l-35.943 10.237c-5.415 1.542-9.196 6.551-9.196 12.181v37.407c0 5.63 3.782 10.639 9.196 12.181l35.943 10.237c3.65 13.783 9.117 26.978 16.283 39.3l-18.179 32.659c-2.738 4.919-1.871 11.135 2.11 15.115l26.451 26.451c3.981 3.981 10.196 4.849 15.116 2.11l32.659-18.18c12.323 7.167 25.518 12.633 39.3 16.283l10.237 35.943c1.542 5.414 6.551 9.196 12.181 9.196h37.407c5.629 0 10.638-3.781 12.181-9.196l10.237-35.944c2.918-.773 5.82-1.642 8.693-2.58v9.466c0 8.284 6.74 15.024 15.024 15.024h152.322c8.285 0 15.024-6.74 15.024-15.024v-97.278c.001-8.281-6.739-15.021-15.024-15.021zm-431.92-216.032v-17.721c0-2.77 2.254-5.024 5.024-5.024h122.322c2.77 0 5.024 2.254 5.024 5.024v17.721zm250.667 312.458c-1.745.428-3.125 1.759-3.617 3.486l-11.024 38.708c-.325 1.14-1.379 1.936-2.563 1.936h-37.407c-1.185 0-2.239-.796-2.563-1.935l-11.024-38.708c-.492-1.728-1.873-3.058-3.617-3.486-14.765-3.623-28.842-9.455-41.84-17.335-1.537-.931-3.454-.967-5.024-.093l-35.171 19.578c-1.035.577-2.343.394-3.181-.444l-26.451-26.452c-.837-.837-1.02-2.145-.444-3.18l19.578-35.171c.874-1.569.838-3.487-.093-5.024-7.88-12.997-13.712-27.074-17.335-41.84-.428-1.745-1.759-3.125-3.486-3.617l-38.708-11.024c-1.139-.325-1.935-1.378-1.935-2.563v-37.407c0-1.185.795-2.239 1.935-2.563l38.708-11.024c1.728-.492 3.058-1.873 3.486-3.617 3.091-12.597 7.825-24.728 14.046-36.098h44.412c8.284 0 15.024-6.74 15.024-15.024v-44.595c11.477-6.324 23.745-11.121 36.479-14.245 1.745-.428 3.125-1.759 3.617-3.486l11.024-38.708c.325-1.139 1.379-1.935 2.563-1.935h37.407c1.185 0 2.239.796 2.563 1.935l11.024 38.708c.492 1.728 1.873 3.058 3.617 3.486 14.765 3.623 28.842 9.456 41.84 17.335 1.538.932 3.455.968 5.024.093l35.171-19.578c1.035-.576 2.343-.394 3.181.444l26.451 26.451c.838.837 1.021 2.146.444 3.181l-19.578 35.171c-.874 1.57-.838 3.487.093 5.024 7.88 12.999 13.713 27.075 17.335 41.84.428 1.745 1.759 3.125 3.486 3.617l38.708 11.024c1.139.325 1.935 1.379 1.935 2.563v37.407c0 1.185-.796 2.239-1.935 2.563l-38.708 11.024c-1.728.492-3.059 1.873-3.486 3.617-1.118 4.555-2.476 9.094-4.022 13.536h-20.412c-2.761 0-5 2.239-5 5s2.239 5 5 5h95.724c2.771 0 5.024 2.254 5.024 5.024v17.721h-162.37v-17.721c0-2.77 2.254-5.024 5.024-5.024h29.058c2.761 0 5-2.239 5-5s-2.239-5-5-5h-29.058c-8.284 0-15.024 6.74-15.024 15.024v77.25c-4.556 1.599-9.222 3.001-13.905 4.151zm181.253 20.9h-152.322c-2.77 0-5.024-2.254-5.024-5.024v-69.557h162.37v69.557c.001 2.77-2.253 5.024-5.024 5.024z"/><path d="m343.116 410.99c-.152 0-.305-.007-.458-.021-1.988-.182-3.677-1.529-4.297-3.427l-6.86-21.01c-.857-2.625.576-5.448 3.201-6.305s5.448.576 6.305 3.201l3.26 9.983 1.827-3.357c.875-1.608 2.56-2.61 4.392-2.61s3.517 1.001 4.392 2.61l1.827 3.357 3.26-9.983c.856-2.625 3.679-4.059 6.305-3.201 2.625.857 4.059 3.68 3.201 6.305l-6.86 21.01c-.62 1.898-2.309 3.245-4.296 3.427-1.986.185-3.894-.835-4.848-2.589l-2.98-5.476-2.98 5.476c-.881 1.618-2.572 2.61-4.391 2.61z"/><path d="m385.918 410.99c-.152 0-.305-.007-.458-.021-1.988-.182-3.677-1.529-4.297-3.427l-6.86-21.01c-.857-2.625.576-5.448 3.201-6.305s5.448.576 6.305 3.201l3.26 9.983 1.827-3.357c.875-1.608 2.56-2.61 4.392-2.61s3.517 1.001 4.392 2.61l1.827 3.357 3.26-9.983c.856-2.625 3.679-4.059 6.305-3.201 2.625.857 4.059 3.68 3.201 6.305l-6.86 21.01c-.62 1.898-2.309 3.245-4.296 3.427-1.988.185-3.895-.835-4.848-2.589l-2.98-5.476-2.98 5.476c-.882 1.618-2.573 2.61-4.391 2.61z"/><path d="m443.459 410.99c-1.818 0-3.51-.992-4.39-2.61l-2.98-5.476-2.98 5.476c-.954 1.753-2.856 2.773-4.848 2.589-1.988-.182-3.677-1.529-4.296-3.427l-6.86-21.01c-.857-2.625.576-5.448 3.201-6.305s5.448.576 6.305 3.201l3.26 9.983 1.827-3.357c.875-1.608 2.56-2.61 4.392-2.61s3.517 1.001 4.392 2.61l1.827 3.357 3.26-9.983c.856-2.625 3.679-4.059 6.305-3.201 2.625.857 4.059 3.68 3.201 6.305l-6.86 21.01c-.62 1.898-2.309 3.245-4.296 3.427-.155.014-.308.021-.46.021z"/></g><path d="m442.965 200.767c-1.28 0-2.559-.488-3.536-1.464l-10.994-10.994c-1.953-1.953-1.953-5.119 0-7.071l10.994-10.994c1.953-1.952 5.118-1.952 7.071 0l10.994 10.994c1.953 1.953 1.953 5.119 0 7.071l-10.993 10.993c-.977.976-2.256 1.465-3.536 1.465zm-3.923-15.995 3.923 3.923 3.923-3.923-3.923-3.923z" fill="#6583fe"/><path d="m357.311 93.127c-2.761 0-5-2.239-5-5 0-3.322-2.702-6.024-6.023-6.024-2.761 0-5-2.239-5-5s2.239-5 5-5c3.321 0 6.023-2.702 6.023-6.023 0-2.761 2.239-5 5-5s5 2.239 5 5c0 3.321 2.702 6.023 6.023 6.023 2.761 0 5 2.239 5 5s-2.239 5-5 5c-3.321 0-6.023 2.702-6.023 6.024 0 2.762-2.239 5-5 5z" fill="#6583fe"/><path d="m63.287 353.341c-2.761 0-5-2.239-5-5 0-3.321-2.702-6.023-6.023-6.023-2.761 0-5-2.239-5-5s2.239-5 5-5c3.321 0 6.023-2.702 6.023-6.023 0-2.761 2.239-5 5-5s5 2.239 5 5c0 3.321 2.702 6.023 6.023 6.023 2.761 0 5 2.239 5 5s-2.239 5-5 5c-3.321 0-6.023 2.702-6.023 6.023 0 2.761-2.239 5-5 5z" fill="#6583fe"/><path d="m55.845 407.052c-2.761 0-5-2.239-5-5 0-3.321-2.702-6.023-6.024-6.023-2.761 0-5-2.239-5-5s2.239-5 5-5c3.322 0 6.024-2.702 6.024-6.023 0-2.761 2.239-5 5-5s5 2.239 5 5c0 3.321 2.702 6.023 6.023 6.023 2.761 0 5 2.239 5 5s-2.239 5-5 5c-3.321 0-6.023 2.702-6.023 6.023 0 2.761-2.239 5-5 5z" fill="#6583fe"/></g></svg>