<svg id="Capa_1" enable-background="new 0 0 439.843 439.843" height="512" viewBox="0 0 439.843 439.843" width="512" xmlns="http://www.w3.org/2000/svg"><g><path d="m30.918 205.727 30.333-55.222h317.341l30.334 55.222-14.521 18.406-300.747 5.187-56.514-15.041z" fill="#dbd8dd"/><path d="m43.365 254.729h353.113v185.114h-353.113z" fill="#dbd8dd"/><path d="m30.918 205.727h378.003v59.89h-378.003z" fill="#bbbbcd"/><path d="m77.974 301.781h283.895v101.888h-283.895z" fill="#eeefee"/><g fill="#575b6d"><path d="m105.53 332.427h12.856c13.787 0 20.681 6.692 20.681 20.077 0 13.679-6.894 20.519-20.681 20.519h-12.856zm5.371 35.772h7.395c4.433.544 8.871-.972 12.045-4.114 2.337-3.396 3.468-7.478 3.214-11.592.253-4.013-.875-7.991-3.197-11.274-3.221-3.068-7.647-4.53-12.062-3.985h-7.367z"/><path d="m164.078 331.734c5.27-.179 10.362 1.92 13.973 5.763 7.237 8.865 7.237 21.597 0 30.462-7.736 7.673-20.211 7.673-27.947 0-7.274-8.847-7.274-21.604 0-30.451 3.62-3.833 8.706-5.935 13.974-5.774zm-.05 37.387c3.803.108 7.458-1.474 9.983-4.321 5.181-7.217 5.181-16.934 0-24.152-2.489-2.839-6.113-4.423-9.888-4.321-3.828-.119-7.511 1.463-10.061 4.321-5.216 7.2-5.216 16.935 0 24.135 2.512 2.856 6.165 4.445 9.966 4.338z"/><path d="m222.482 373.028h-5.511l-21.268-32.044v32.044h-5.097v-40.601h5.483l21.268 32.044v-32.044h5.125z"/><path d="m264.91 373.028h-6.065l-4.706-12.352h-17.008l-4.472 12.352h-5.69l15.594-40.601h5.791zm-12.352-16.617-7.143-18.831-6.813 18.831z"/><path d="m298.256 337.245h-13.414v35.772h-5.399v-35.772h-13.342v-4.818h32.156v4.818z"/><path d="m334.313 373.028h-30.272v-40.601h29.344v4.818h-23.973v12.408h22.408v4.818h-22.408v13.739h24.895z"/><path d="m328.037 176.948c-.025 4.322-3.548 7.805-7.87 7.78-.004 0-.008 0-.012 0h-197.745c-4.322.031-7.85-3.447-7.881-7.769 0-.004 0-.008 0-.011.025-4.322 3.548-7.805 7.869-7.78h.011 197.746c4.322-.031 7.85 3.447 7.881 7.769.001.003.001.007.001.011z"/></g><path d="m145.388 0h149.068v184.728h-149.068z" fill="#2cbfae"/><path d="m156.343 11.011h127.158v173.717h-127.158z" fill="#16a897"/><path d="m271.651 44.883v139.823h-103.459v-139.823c12.161-.003 22.019-9.861 22.022-22.022h59.415c.003 12.161 9.861 22.018 22.022 22.022z" fill="#2cbfae"/><ellipse cx="219.922" cy="59.096" fill="#16a897" rx="11.285" ry="11.285" transform="matrix(.16 -.987 .987 .16 126.361 266.712)"/><ellipse cx="219.922" cy="129.187" fill="#16a897" rx="41.831" ry="35.364"/><path d="m244.515 127.046c-.029-.229-.086-.454-.168-.671-.758-6.429-6.159-11.304-12.632-11.402-6.484 0-10.061 4.304-13.023 11.402-.317.57-.579 1.169-.783 1.789-.571 1.462-1.283 2.866-2.124 4.192-1.352 2.869-4.207 4.729-7.378 4.807-3.089.006-5.854-1.912-6.931-4.807-.607-1.49-.911-3.086-.894-4.695-.009-.429.01-.859.056-1.286.199-3.636 1.377-7.151 3.41-10.173l-5.366-1.9c-2.273 3.619-3.492 7.8-3.521 12.073v.112h-4.639v5.03h4.863c.048.286.123.567.224.838.946 6.673 6.619 11.658 13.359 11.738 6.931 0 11.011-3.913 14.309-11.738.112-.224.168-.391.279-.615.725-1.849 1.585-3.642 2.571-5.366 1.071-2.687 3.648-4.47 6.54-4.527 2.837-.015 5.353 1.821 6.204 4.527.435 1.258.643 2.582.615 3.913 0 .727-.056 1.397-.112 2.068-.254 2.822-1.132 5.552-2.571 7.993l5.254 2.012c1.723-3.062 2.681-6.494 2.795-10.005v-.391h4.36v-4.919z" fill="#2cbfae"/><path d="m190.578 126.381h58.688v5.981h-58.688z" fill="#2cbfae"/></g></svg>