<svg id="Capa_1" enable-background="new 0 0 512 512" height="512" viewBox="0 0 512 512" width="512" xmlns="http://www.w3.org/2000/svg" xmlns:xlink="http://www.w3.org/1999/xlink"><linearGradient id="SVGID_1_" gradientUnits="userSpaceOnUse" x1="256" x2="256" y1="512" y2="0"><stop offset="0" stop-color="#addcff"/><stop offset=".5028" stop-color="#eaf6ff"/><stop offset="1" stop-color="#eaf6ff"/></linearGradient><linearGradient id="SVGID_2_" gradientUnits="userSpaceOnUse" x1="256" x2="256" y1="389.503" y2="122.5"><stop offset="0" stop-color="#00c0ff"/><stop offset="1" stop-color="#5558ff"/></linearGradient><g><g><circle cx="256" cy="256" fill="url(#SVGID_1_)" r="256"/></g><g><g><path d="m403.287 213.165-124.353-88.998c-2.741-1.956-6.263-2.208-9.229-.669-2.967 1.521-4.823 4.572-4.823 7.909v44.733c-88.945 4.642-159.882 78.612-159.882 168.861v35.599c0 4.441 3.261 8.196 7.651 8.813 4.223.617 8.525-1.977 9.767-6.362l1.371-4.806c18.216-63.863 75.483-109.3 141.094-113.09v44.247c0 3.337 1.856 6.388 4.823 7.909 2.967 1.539 6.488 1.269 9.229-.669l124.353-88.998c2.325-1.669 3.713-4.363 3.713-7.24s-1.389-5.57-3.714-7.239z" fill="url(#SVGID_2_)"/></g></g></g></svg>