<svg id="Capa_1" enable-background="new 0 0 510 510" height="512" viewBox="0 0 510 510" width="512" xmlns="http://www.w3.org/2000/svg" xmlns:xlink="http://www.w3.org/1999/xlink"><linearGradient id="lg1"><stop offset="0" stop-color="#7faef4"/><stop offset="1" stop-color="#4c8df1"/></linearGradient><linearGradient id="SVGID_1_" gradientUnits="userSpaceOnUse" x1="126.402" x2="395.506" xlink:href="#lg1" y1="126.402" y2="395.506"/><linearGradient id="SVGID_2_" gradientUnits="userSpaceOnUse" x1="430.795" x2="65.132" xlink:href="#lg1" y1="430.795" y2="65.132"/><linearGradient id="lg2"><stop offset="0" stop-color="#4c8df1" stop-opacity="0"/><stop offset=".5631" stop-color="#466cc8" stop-opacity=".563"/><stop offset="1" stop-color="#4256ac"/></linearGradient><linearGradient id="SVGID_3_" gradientUnits="userSpaceOnUse" x1="277.483" x2="101.109" xlink:href="#lg2" y1="331.872" y2="244.184"/><linearGradient id="SVGID_4_" gradientUnits="userSpaceOnUse" x1="418.698" x2="277.698" xlink:href="#lg2" y1="400.245" y2="332.245"/><linearGradient id="lg3"><stop offset="0" stop-color="#e3e5e4"/><stop offset="1" stop-color="#cbd0e4"/></linearGradient><linearGradient id="SVGID_5_" gradientUnits="userSpaceOnUse" x1="250.536" x2="327.067" xlink:href="#lg3" y1="408.464" y2="484.995"/><linearGradient id="SVGID_6_" gradientUnits="userSpaceOnUse" x1="292.254" x2="241.588" y1="436.058" y2="321.392"><stop offset="0" stop-color="#cbd0e4" stop-opacity="0"/><stop offset="1" stop-color="#6a7d83"/></linearGradient><linearGradient id="SVGID_7_" gradientUnits="userSpaceOnUse" x1="207.983" x2="375.569" xlink:href="#lg3" y1="208.017" y2="375.603"/><linearGradient id="SVGID_8_" gradientUnits="userSpaceOnUse" x1="326.249" x2="136.247" xlink:href="#lg3" y1="297.751" y2="107.748"/><g><g><path d="m445.539 255c0-7.504-.439-14.904-1.286-22.18-1.09-9.356 2.617-18.633 9.698-24.845l29.15-25.574c9.894-8.68 12.117-23.215 5.271-34.456l-31.177-51.185c-6.846-11.241-20.782-15.934-33.033-11.125l-36.338 14.262c-8.795 3.452-18.68 2.243-26.515-3.036-8.418-5.671-17.314-10.687-26.614-14.976-8.558-3.947-14.703-11.754-16.326-21.037l-6.717-38.422c-2.267-12.966-13.524-22.426-26.686-22.426h-59.932c-13.162 0-24.419 9.46-26.685 22.425l-6.717 38.422c-1.623 9.283-7.768 17.091-16.326 21.037-9.3 4.289-18.196 9.305-26.614 14.976-7.836 5.278-17.721 6.487-26.515 3.036l-36.339-14.262c-12.252-4.808-26.187-.115-33.033 11.125l-31.176 51.185c-6.846 11.241-4.623 25.776 5.271 34.456l29.15 25.574c7.081 6.212 10.788 15.489 9.698 24.845-.848 7.276-1.286 14.677-1.286 22.18s.439 14.904 1.286 22.18c1.09 9.356-2.617 18.633-9.698 24.845l-29.15 25.574c-9.894 8.68-12.117 23.215-5.271 34.456l31.176 51.185c6.846 11.241 20.782 15.934 33.033 11.125l36.338-14.262c8.795-3.452 18.68-2.242 26.515 3.036 8.418 5.671 17.314 10.687 26.614 14.976 8.558 3.947 14.703 11.754 16.326 21.037l6.717 38.422c2.267 12.967 13.524 18.427 26.686 18.427h59.932c13.162 0 24.419-5.46 26.685-18.425l6.717-38.422c1.623-9.283 7.768-17.091 16.326-21.037 9.3-4.289 18.196-9.305 26.614-14.976 7.836-5.278 17.721-6.487 26.515-3.036l36.338 14.262c12.252 4.809 26.187.115 33.033-11.125l31.176-51.185c6.846-11.241 4.623-25.776-5.271-34.456l-29.15-25.574c-7.081-6.212-10.788-15.489-9.698-24.845.85-7.277 1.288-14.677 1.288-22.181z" fill="url(#SVGID_1_)"/><circle cx="255" cy="255" fill="url(#SVGID_2_)" r="155.751"/></g><path d="m284.966 510c13.162 0 24.419-9.46 26.685-22.425l6.717-38.422c1.623-9.283 7.768-17.091 16.326-21.037 9.3-4.289 18.196-9.305 26.614-14.976 7.836-5.278 17.721-6.487 26.515-3.036l36.338 14.262c12.252 4.809 26.187.115 33.033-11.125l31.176-51.185c6.846-11.241 4.623-25.776-5.271-34.456l-29.15-25.574c-7.081-6.212-10.788-15.489-9.698-24.845.508-4.362.85-8.774 1.058-13.221l-95.998-95.998c-5.973-6.468-12.601-12.323-19.782-17.453-5.799-4.143-13.861.054-13.861 7.181v84.713c0 8.754-3.979 16.932-10.645 22.357-1.257-1.208-111.767-111.526-112.688-112.64-2.764-3.342-7.893-2.452-11.935.439-32.6 23.323-51.818 59.527-51.741 102.678.066 37.151 13.861 70.537 39.073 93.911l27.6 27.698 1 64.446c0 15.516-.657 31.002 2.015 46.286 2.268 12.962 13.525 22.422 26.687 22.422z" fill="url(#SVGID_3_)"/><path d="m488.37 362.05-31.17 51.19c-6.85 11.24-20.79 15.93-33.04 11.13l-36.34-14.27c-8.79-3.45-18.68-2.24-26.51 3.04-8.42 5.67-17.32 10.69-26.62 14.98-8.55 3.94-14.7 11.75-16.32 21.03l-6.72 38.43c-2.27 12.96-13.52 19.42-26.68 19.42h-59.94c-6.58 0-12.68-2.36-17.42-6.35-2.42-2.03-4.48-1.48-6.07-4.25 3.99 2.3 8.61 3.6 13.49 3.6h59.94c13.16 0 24.41-9.46 26.68-22.42 1.33-7.64 2.34-15.34 3.01-23.06s1.01-15.48 1.01-23.23v-73.17c40.28-21.65 67.67-64.19 67.67-113.12 0-32.85-12.34-62.82-32.65-85.52 3.01 2.68 5.88 5.51 8.62 8.48l96 96c-.21 4.45-.55 8.86-1.06 13.22-1.09 9.36 2.62 18.63 9.7 24.85l29.15 25.57c9.89 8.68 12.12 23.21 5.27 34.45z" fill="url(#SVGID_4_)"/><path d="m311.651 487.575c2.672-15.284 4.015-30.77 4.015-46.286v-105.956h-121.333v105.956c0 15.516 1.343 31.002 4.015 46.286 2.267 12.965 13.524 22.425 26.686 22.425h59.932c13.162 0 24.419-9.46 26.685-22.425z" fill="url(#SVGID_5_)"/><path d="m194.333 368.158 117.613 117.613c2.467-14.698 3.72-29.576 3.72-44.482v-105.956h-121.333z" fill="url(#SVGID_6_)"/><path d="m383.34 255c0 70.88-57.459 128.339-128.339 128.34s-128.215-57.226-128.341-128.106c-.077-43.151 21.141-81.355 53.741-104.678 5.826-4.168 13.928-.028 13.928 7.135v84.71c0 10.302 5.496 19.822 14.418 24.974l31.833 18.38c8.923 5.152 19.916 5.152 28.839 0l31.833-18.38c8.922-5.151 14.418-14.671 14.418-24.974v-84.713c0-7.126 8.062-11.323 13.861-7.181 32.58 23.277 53.809 61.408 53.809 104.493z" fill="url(#SVGID_7_)"/><path d="m160.023 265.81c0 16.128 8.604 31.031 22.571 39.095l49.833 28.773c13.968 8.065 31.178 8.065 45.146 0l49.833-28.773c13.967-8.064 22.571-22.967 22.571-39.095v-97.11c-6.146-6.759-12.995-12.868-20.446-18.192-5.799-4.143-13.861.054-13.861 7.181v84.713c0 10.302-5.496 19.822-14.418 24.974l-31.833 18.38c-8.923 5.152-19.916 5.152-28.839 0l-31.833-18.38c-8.922-5.151-14.418-14.671-14.418-24.974v-84.71c0-7.164-8.102-11.303-13.928-7.135-7.425 5.312-14.252 11.404-20.379 18.142v97.111z" fill="url(#SVGID_8_)"/></g></svg>