<svg id="Capa_1" enable-background="new 0 0 512 512" height="512" viewBox="0 0 512 512" width="512" xmlns="http://www.w3.org/2000/svg"><g><g><g><g><g><g><g><g><g><g><circle cx="256" cy="256" fill="#fe6a16" r="256"/></g></g></g></g></g></g></g></g></g><path d="m84.11 302.131 204.544 207.806c125.965-16.037 223.346-123.615 223.346-253.937 0-12.759-.934-25.299-2.736-37.557l-124.392-126.099z" fill="#ea4006"/><g><path d="m112.983 285.647h220.669v69.937h-220.669z" fill="#414952" transform="matrix(.866 .5 -.5 .866 190.227 -68.705)"/><path d="m112.983 156.416h220.669v69.937h-220.669z" fill="#555a66" transform="matrix(.866 -.5 .5 .866 -65.774 137.3)"/></g><g><circle cx="125.834" cy="256" fill="#ffce00" r="62.202"/><path d="m188.036 256c0 34.353-27.849 62.202-62.202 62.202s-62.202-27.849-62.202-62.202z" fill="#fa0"/></g><g><circle cx="333.931" cy="128.046" fill="#ffce00" r="62.202"/><circle cx="333.931" cy="383.954" fill="#fa0" r="62.202"/></g></g></svg>