<svg height="480pt" viewBox="0 0 480 480" width="480pt" xmlns="http://www.w3.org/2000/svg"><path d="m432 240c0 106.039062-85.960938 192-192 192s-192-85.960938-192-192 85.960938-192 192-192 192 85.960938 192 192zm0 0" fill="#cfd2fc"/><path d="m240 480c-132.546875 0-240-107.453125-240-240s107.453125-240 240-240 240 107.453125 240 240c-.148438 132.484375-107.515625 239.851562-240 240zm0-464c-123.710938 0-224 100.289062-224 224s100.289062 224 224 224 224-100.289062 224-224c-.140625-123.652344-100.347656-223.859375-224-224zm0 0" fill="#8690fa"/><path d="m304 320c-1.234375.011719-2.457031-.261719-3.566406-.800781l-158.320313-79.199219 158.3125-79.160156c3.953125-1.976563 8.757813-.371094 10.734375 3.585937 1.976563 3.953125.371094 8.757813-3.585937 10.734375l-129.6875 64.839844 129.6875 64.800781c3.375 1.632813 5.160156 5.386719 4.304687 9.03125-.859375 3.648438-4.132812 6.210938-7.878906 6.167969zm0 0" fill="#8690fa"/><g fill="#5153ff"><path d="m200 240c0 22.089844-17.910156 40-40 40s-40-17.910156-40-40 17.910156-40 40-40 40 17.910156 40 40zm0 0"/><path d="m344 168c0 22.089844-17.910156 40-40 40s-40-17.910156-40-40 17.910156-40 40-40 40 17.910156 40 40zm0 0"/><path d="m344 312c0 22.089844-17.910156 40-40 40s-40-17.910156-40-40 17.910156-40 40-40 40 17.910156 40 40zm0 0"/></g></svg>